<svg width="20" height="20" viewBox="0 0 38 50" fill="none" xmlns="http://www.w3.org/2000/svg">
<path d="M4.63065 6.65581C7.35597 8.18099 10.0475 9.69293 12.7448 11.199C16.9247 13.5316 21.0958 15.8775 25.2934 18.1719C26.2685 18.7043 26.6818 19.3676 26.6774 20.5016C26.6391 29.6585 26.6509 38.8155 26.6509 47.9695C26.6509 48.6858 26.6847 49.377 25.8817 49.7771C25.0242 50.2021 24.3124 49.9683 23.5682 49.502C17.3733 45.6354 11.1638 41.7923 4.96892 37.9271C0.405151 35.0797 1.27437 36.2931 1.20525 31.2381C1.09788 23.4593 1.06699 15.6804 0.918447 7.90154C0.881678 5.98955 1.60676 4.57321 2.97751 3.37895C5.10129 1.52726 7.53981 0.302118 10.3519 0.019732C11.1652 -0.0641014 12.1109 0.128568 12.8419 0.497729C20.4737 4.36436 28.0702 8.29865 35.6858 12.1903C36.6727 12.6962 37.0698 13.3713 37.0653 14.5126C37.0242 23.8255 36.9977 33.1398 37.0815 42.4527C37.0977 44.2808 35.6402 45.2427 33.8959 44.5809C33.0516 44.2573 32.7766 43.6307 32.781 42.7321C32.809 36.8358 32.7957 30.941 32.7943 25.0491C32.7943 22.14 32.7722 19.2323 32.809 16.3246C32.8193 15.551 32.5472 15.1892 31.8427 14.8171C26.2538 11.8755 20.7017 8.86195 15.1363 5.87336C13.9965 5.26153 12.8404 4.67322 11.708 4.04668C10.5549 3.40984 9.37827 3.35689 8.21048 3.92313C6.8765 4.5688 5.49252 5.17622 4.63065 6.65581Z" fill="white"/>
</svg>
