<svg width="20" height="20" viewBox="0 0 44 44" fill="none" xmlns="http://www.w3.org/2000/svg">
<path fill-rule="evenodd" clip-rule="evenodd" d="M0.125 4.03125C0.125 1.875 1.875 0.125 4.03125 0.125H14.9688C17.125 0.125 18.875 1.875 18.875 4.03125V39.9688C18.875 42.125 17.125 43.875 14.9688 43.875H4.03125C1.875 43.875 0.125 42.125 0.125 39.9688V4.03125ZM4.8125 4.8125V39.1875H14.1875V4.8125H4.8125ZM25.125 4.03125C25.125 1.875 26.875 0.125 29.0312 0.125H39.9688C42.125 0.125 43.875 1.875 43.875 4.03125V14.9688C43.875 17.125 42.125 18.875 39.9688 18.875H29.0312C26.875 18.875 25.125 17.125 25.125 14.9688V4.03125ZM29.8125 4.8125V14.1875H39.1875V4.8125H29.8125ZM29.0312 25.125C26.875 25.125 25.125 26.875 25.125 29.0312V39.9688C25.125 42.125 26.875 43.875 29.0312 43.875H39.9688C42.125 43.875 43.875 42.125 43.875 39.9688V29.0312C43.875 26.875 42.125 25.125 39.9688 25.125H29.0312ZM29.8125 39.1875V29.8125H39.1875V39.1875H29.8125Z" fill="white"/>
</svg>
