<svg xmlns="http://www.w3.org/2000/svg" xmlns:xlink="http://www.w3.org/1999/xlink" width="1440" zoomAndPan="magnify" viewBox="0 0 1080 607.499987" height="810" preserveAspectRatio="xMidYMid meet" version="1.0"><defs><clipPath id="c4c16895f2"><path d="M 0.445312 0 L 1079.554688 0 L 1079.554688 607 L 0.445312 607 Z M 0.445312 0 " clip-rule="nonzero"/></clipPath><clipPath id="be1b59fc15"><path d="M 474.035156 217.019531 L 605.359375 217.019531 L 605.359375 388.769531 L 474.035156 388.769531 Z M 474.035156 217.019531 " clip-rule="nonzero"/></clipPath></defs><g clip-path="url(#c4c16895f2)"><path fill="#ffffff" d="M 0.445312 0 L 1079.554688 0 L 1079.554688 607 L 0.445312 607 Z M 0.445312 0 " fill-opacity="1" fill-rule="nonzero"/><path fill="#ffffff" d="M 0.445312 0 L 1079.554688 0 L 1079.554688 607 L 0.445312 607 Z M 0.445312 0 " fill-opacity="1" fill-rule="nonzero"/></g><g clip-path="url(#be1b59fc15)"><path fill="#000000" d="M 604.34375 259.527344 L 562.84375 218.035156 C 562.191406 217.382812 561.316406 217.019531 560.398438 217.019531 L 477.394531 217.019531 C 475.484375 217.019531 473.9375 218.570312 473.9375 220.480469 L 473.9375 386.457031 C 473.9375 388.367188 475.484375 389.914062 477.394531 389.914062 L 601.898438 389.914062 C 603.808594 389.914062 605.355469 388.367188 605.355469 386.457031 L 605.355469 261.972656 C 605.355469 261.058594 604.992188 260.175781 604.34375 259.527344 Z M 563.855469 228.828125 L 593.546875 258.515625 L 563.855469 258.515625 Z M 480.851562 383 L 480.851562 223.933594 L 556.9375 223.933594 L 556.9375 261.972656 C 556.9375 263.882812 558.484375 265.429688 560.398438 265.429688 L 598.441406 265.429688 L 598.441406 383 Z M 480.851562 383 " fill-opacity="1" fill-rule="nonzero"/></g><path fill="#000000" d="M 505.0625 265.429688 L 532.726562 265.429688 C 534.636719 265.429688 536.1875 263.882812 536.1875 261.972656 C 536.1875 260.0625 534.636719 258.515625 532.726562 258.515625 L 505.0625 258.515625 C 503.152344 258.515625 501.605469 260.0625 501.605469 261.972656 C 501.605469 263.882812 503.152344 265.429688 505.0625 265.429688 Z M 505.0625 265.429688 " fill-opacity="1" fill-rule="nonzero"/><path fill="#000000" d="M 574.230469 286.175781 L 505.0625 286.175781 C 503.152344 286.175781 501.605469 287.726562 501.605469 289.636719 C 501.605469 291.546875 503.152344 293.09375 505.0625 293.09375 L 574.230469 293.09375 C 576.144531 293.09375 577.6875 291.546875 577.6875 289.636719 C 577.6875 287.726562 576.144531 286.175781 574.230469 286.175781 Z M 574.230469 286.175781 " fill-opacity="1" fill-rule="nonzero"/><path fill="#000000" d="M 574.230469 313.839844 L 505.0625 313.839844 C 503.152344 313.839844 501.605469 315.386719 501.605469 317.300781 C 501.605469 319.210938 503.152344 320.757812 505.0625 320.757812 L 574.230469 320.757812 C 576.144531 320.757812 577.6875 319.210938 577.6875 317.300781 C 577.6875 315.386719 576.144531 313.839844 574.230469 313.839844 Z M 574.230469 313.839844 " fill-opacity="1" fill-rule="nonzero"/><path fill="#000000" d="M 574.230469 341.503906 L 505.0625 341.503906 C 503.152344 341.503906 501.605469 343.050781 501.605469 344.964844 C 501.605469 346.875 503.152344 348.417969 505.0625 348.417969 L 574.230469 348.417969 C 576.144531 348.417969 577.6875 346.875 577.6875 344.964844 C 577.6875 343.050781 576.144531 341.503906 574.230469 341.503906 Z M 574.230469 341.503906 " fill-opacity="1" fill-rule="nonzero"/></svg>